Coordinates
version=1
nRows=19
nColumns=34
inDegrees=yes

Units are S.I. units (second, meters, Newtons, ...)
If the header above contains a line with 'inDegrees', this indicates whether rotational values are in degrees (yes) or radians (no).

endheader
time	pelvis_tilt	pelvis_list	pelvis_rotation	pelvis_tx	pelvis_ty	pelvis_tz	hip_flexion_r	hip_adduction_r	hip_rotation_r	knee_angle_r	ankle_angle_r	subtalar_angle_r	mtp_angle_r	hip_flexion_l	hip_adduction_l	hip_rotation_l	knee_angle_l	ankle_angle_l	subtalar_angle_l	mtp_angle_l	lumbar_extension	lumbar_bending	lumbar_rotation	arm_flex_r	arm_add_r	arm_rot_r	elbow_flex_r	pro_sup_r	arm_flex_l	arm_add_l	arm_rot_l	elbow_flex_l	pro_sup_l
      2.46666670	    -13.71281350	     -1.40886990	      4.28214902	      0.28966752	      0.47657412	     -0.05391783	     93.33124901	    -33.32799207	      5.60528767	    118.66411951	     42.59738381	      6.78995698	      0.00000000	     99.47428850	    -22.63651544	     10.03755338	    119.90172720	     40.32487250	     17.96781307	      0.00000000	    -44.85182445	      6.58223851	      6.43193071	    125.34114479	     -2.52622989	     59.86644200	    123.55355505	     88.49215648	    127.16559090	     -2.15497668	     74.86592787	    122.20513932	     87.37176371
      2.48333330	    -14.06136175	     -1.55181787	      4.36642762	      0.28631463	      0.46552449	     -0.05377944	     95.04830125	    -33.70210303	      6.45188052	    120.10004953	     43.16688319	      7.19323233	      0.00000000	    101.39953456	    -22.42313044	     10.90020692	    121.34289208	     40.83305478	     18.21454050	      0.00000000	    -45.16909777	      6.72683194	      6.52426308	    125.74017021	     -2.59169627	     59.80161767	    123.70170786	     88.24073373	    127.58218159	     -2.31364464	     74.79180068	    121.87703713	     87.07820361
      2.50000000	    -14.33642577	     -1.68471078	      4.20328296	      0.28863044	      0.45743729	     -0.05792928	     96.79645580	    -34.05784331	      7.38464633	    121.36759509	     43.48511661	      7.89724222	      0.00000000	    103.19655080	    -22.38777894	     11.68926353	    122.95659304	     40.86997470	     18.24732085	      0.00000000	    -45.39046977	      6.88498135	      6.78483470	    126.01734591	     -2.78240925	     59.98541943	    124.02321511	     87.98270511	    127.55325824	     -2.53735551	     74.77609754	    121.53352983	     86.76082877
      2.51666670	    -14.80346055	     -1.77343989	      4.32840710	      0.29272282	      0.44926992	     -0.05585306	     98.38246958	    -34.67771795	      8.31674696	    122.64336537	     44.51820845	      9.53688927	      0.00000000	    104.85284831	    -22.41011871	     12.31458702	    124.32637288	     40.43028853	     17.88314463	      0.00000000	    -44.99933851	      7.06733102	      7.09362855	    125.27653750	     -3.00927193	     60.68556604	    124.57795698	     87.42758004	    126.69355904	     -2.42574730	     75.00130073	    122.04552469	     86.13549022
      2.53333330	    -15.01402009	     -1.79655892	      4.04864324	      0.28883854	      0.44336555	     -0.05906245	     99.76912213	    -34.75794659	      9.04172826	    123.35333569	     44.37814540	     10.01769863	      0.00000000	    106.23979493	    -22.41886451	     12.78181650	    125.62963494	     40.00376227	     17.61457779	      0.00000000	    -45.47517083	      7.03960003	      7.45247143	    125.77735938	     -3.18548623	     60.56077262	    124.30128872	     87.24568137	    126.95218558	     -2.53081491	     75.10603701	    121.81987448	     85.96385635
      2.55000000	    -15.29505707	     -1.88787365	      3.97971269	      0.28971121	      0.43370663	     -0.05634672	    101.31996415	    -35.18871626	      9.70745149	    124.46626294	     44.88598159	     11.03335560	      0.00000000	    107.76156067	    -22.31629708	     13.60941852	    126.74507983	     39.36671392	     16.64832435	      0.00000000	    -45.31853498	      6.98031697	      7.54250313	    125.40178087	     -3.17287984	     60.65273634	    124.51781620	     86.58097791	    126.67333409	     -2.54066226	     75.61366251	    122.24075896	     85.36783904
      2.56666670	    -15.68409053	     -2.01759289	      3.91691527	      0.29347487	      0.42626302	     -0.06109192	    102.97704281	    -35.63828885	     10.81568810	    125.65431314	     45.04218441	     11.86052555	      0.00000000	    109.23182435	    -22.19578403	     14.39189366	    127.89640659	     39.79534938	     17.49761397	      0.00000000	    -45.02436219	      7.23978213	      7.67842568	    125.12400243	     -3.07443934	     60.92291972	    124.81140046	     85.96854015	    126.29487065	     -2.66383624	     75.65623546	    122.76202358	     84.80580998
      2.58333330	    -15.49684934	     -2.18847887	      3.84520911	      0.28957345	      0.41870044	     -0.05881569	    104.10697550	    -35.84909598	     11.67303963	    126.74298946	     44.83125268	     12.40681908	      0.00000000	    110.34457598	    -21.99741011	     15.30227529	    128.97544445	     39.85931542	     17.32981321	      0.00000000	    -45.42461355	      7.23356327	      7.86563626	    125.47541506	     -2.98882466	     60.58218412	    124.60737662	     85.79086754	    126.66379909	     -2.87436809	     75.39788949	    122.49632588	     84.65016747
      2.60000000	    -15.47323391	     -2.37357871	      3.91827383	      0.29009293	      0.41317183	     -0.06092178	    105.32372862	    -36.11017723	     12.73300638	    127.87250379	     45.18570560	     13.45957580	      0.00000000	    111.50660728	    -21.62631313	     16.03333503	    129.96405048	     39.52568623	     17.11637676	      0.00000000	    -45.63869377	      7.42208287	      7.83390216	    125.72407479	     -2.90759728	     60.48366025	    124.93422281	     85.44078040	    126.77912689	     -2.69019450	     75.20116961	    122.73213459	     84.32143817
      2.61666670	    -15.34089635	     -2.35752607	      3.97991657	      0.28966168	      0.40861682	     -0.06438063	    106.59267097	    -36.24262879	     14.01185829	    128.70600368	     44.98191268	     13.77681195	      0.00000000	    112.12426594	    -21.19931640	     16.11103099	    130.67732052	     39.47614029	     16.84830438	      0.00000000	    -45.83723130	      7.58898238	      8.15409180	    126.03786017	     -3.31341376	     60.76064472	    125.18382599	     84.74919939	    126.79067487	     -2.37685776	     74.67989920	    122.42289779	     83.63488360
      2.63333330	    -15.63442448	     -2.55880047	      4.14096631	      0.29540225	      0.40835422	     -0.06736212	    107.33751596	    -36.58388603	     14.83676282	    129.14470674	     44.49471516	     13.57427853	      0.00000000	    112.68611234	    -20.72033046	     16.27253445	    131.17122413	     39.42150015	     16.41218294	      0.00000000	    -45.44992813	      8.16754583	      8.51592594	    125.66996988	     -3.66470918	     61.71339609	    126.00367808	     84.30149589	    125.76383013	     -2.07551427	     74.70757233	    122.69638987	     83.15877123
      2.65000000	    -15.35595898	     -2.65756587	      4.28153546	      0.29137199	      0.40325448	     -0.06450168	    107.68894972	    -36.76968530	     15.36905177	    129.60954970	     44.24219280	     13.48949939	      0.00000000	    112.84424489	    -20.33571269	     16.59462950	    131.59271628	     39.67777655	     16.30903274	      0.00000000	    -45.72121240	      8.35364341	      8.69662145	    125.48124283	     -3.67414402	     61.87266908	    126.09531750	     84.18710429	    125.62100642	     -1.69565805	     74.74935490	    122.91366616	     83.05918517
      2.66666670	    -15.41687068	     -2.73802008	      4.54398062	      0.29916826	      0.40076361	     -0.06367760	    108.17913012	    -37.21581541	     16.08577137	    130.41092087	     44.42379207	     13.77667376	      0.00000000	    113.18833621	    -20.31325083	     17.07726959	    132.02457936	     39.87472697	     16.34174389	      0.00000000	    -45.15630558	      8.53691302	      8.73967943	    124.74193811	     -4.00803340	     62.63877410	    126.87425884	     83.90549158	    124.27773571	     -1.59089583	     75.08333792	    123.65868120	     82.80906388
      2.68333330	    -15.34290560	     -2.66875346	      4.50621792	      0.29483923	      0.39730648	     -0.06308770	    108.26665207	    -37.41110615	     16.19348853	    130.74701736	     44.83181005	     14.73605541	      0.00000000	    113.47154578	    -20.52894195	     17.31598743	    132.41435874	     39.90097067	     16.56112152	      0.00000000	    -45.04874426	      8.21093649	      8.60760835	    124.60074986	     -3.75456306	     62.72085506	    126.73025060	     83.73247557	    124.20474703	     -1.41414936	     75.09037965	    123.71075459	     82.68185366
      2.70000000	    -15.22762358	     -2.72522843	      4.34487247	      0.29339160	      0.39601313	     -0.06751296	    108.51619099	    -37.53217204	     16.46609100	    130.89530226	     44.85594779	     15.61971982	      0.00000000	    113.78582272	    -20.36504321	     17.51071277	    132.78468415	     40.16686540	     16.91035257	      0.00000000	    -45.00527612	      8.12540244	      8.47372690	    124.78298038	     -3.87931314	     62.60326620	    126.55675007	     83.60047577	    124.30516579	     -1.67562881	     74.96531973	    123.43521863	     82.57046526
      2.71666670	    -15.12617646	     -2.76767668	      4.29266959	      0.29414663	      0.39331105	     -0.06890545	    108.85834126	    -37.71431749	     17.02123580	    131.13058797	     45.08586205	     16.15612092	      0.00000000	    114.12166518	    -20.02117255	     17.86300009	    133.29045108	     40.43794051	     17.40644888	      0.00000000	    -44.77854343	      8.23464232	      8.54473181	    124.96386715	     -3.82179651	     62.63190400	    126.43740152	     83.46721787	    124.54107138	     -1.41266827	     74.79820169	    123.33780211	     82.44995453
      2.73333330	    -14.99591380	     -2.65372154	      4.11868402	      0.29119900	      0.39821016	     -0.06720538	    108.81714483	    -37.52633845	     16.82375869	    130.74524618	     44.59022287	     16.12325841	      0.00000000	    113.92500241	    -19.93446631	     17.64199606	    133.20649654	     40.08971272	     17.36935734	      0.00000000	    -44.83988579	      7.90948360	      8.41749665	    125.35692116	     -3.95426025	     62.67574124	    126.27924122	     83.35010444	    124.66437290	     -1.64691271	     74.67530322	    122.97158931	     82.33756363
      2.75000000	    -15.09950332	     -2.55991236	      3.97115706	      0.29017480	      0.40040217	     -0.06990431	    108.90124616	    -37.14284899	     16.78494413	    130.21228809	     43.89090460	     15.45564384	      0.00000000	    113.64422112	    -19.70772665	     17.09768284	    132.62455222	     40.31858916	     17.45339738	      0.00000000	    -44.77509956	      7.85873580	      8.54953361	    125.97621089	     -3.96853014	     62.74246608	    125.94695668	     83.19338330	    125.14173705	     -1.62905714	     74.42056607	    122.47303120	     82.17557771
      2.76666670	    -15.23418917	     -2.41378879	      3.90244058	      0.28946444	      0.40403219	     -0.06692061	    108.57245104	    -36.76990177	     16.28216685	    129.57829671	     43.99655916	     15.29719924	      0.00000000	    113.21166677	    -19.75448129	     16.78015779	    132.05831628	     40.03332881	     17.27205446	      0.00000000	    -44.61682362	      7.54255587	      8.51101543	    126.40071424	     -4.09933534	     62.78739906	    125.63442179	     83.04004785	    125.55055962	     -1.80204398	     74.07214494	    122.25804910	     82.03061104
